<?xml version="1.0" encoding="UTF-8"?>
<svg id="Layer_1" xmlns="http://www.w3.org/2000/svg" version="1.1" viewBox="0 0 201.53 42.42">
  <!-- Generator: Adobe Illustrator 29.6.0, SVG Export Plug-In . SVG Version: 2.1.1 Build 207)  -->
  <path d="M7.12,11.57l4.16-1.36h.58c-.29.87-.49,1.69-.74,2.55,1.85-1.48,4.24-2.51,6.42-2.55,5.93-.12,9.64,4.74,8.11,11.12-1.69,6.92-7.49,10.79-12.64,10.79-2.84-.04-4.82-.95-6.09-2.39-.95,4.37-1.81,8.69-2.51,12.68H0c2.76-9.43,5.52-21.41,7.12-30.84ZM20.88,24.5c1.98-5.85.12-12.4-5.07-12.6-1.65-.04-3.58.66-4.9,1.69-1.03,3.71-2.06,7.66-2.92,11.61-.7,3.75,1.44,6.26,4.82,6.22,3.75-.08,6.88-3.01,8.07-6.92Z"/>
  <path d="M29.69,21c1.65-6.92,7.49-10.79,12.6-10.79,2.84,0,4.65.91,5.89,2.35.08-.41.16-.82.21-1.24l4.08-1.11h.58c-2.18,7-3.91,14.5-4.98,21.5h-4.41c.29-.78.54-1.61.78-2.43-1.94,1.65-4.37,2.76-6.63,2.84-5.97.08-9.64-4.74-8.11-11.12ZM44.64,28.46c1.07-3.66,2.06-7.62,2.76-11.32.54-3.54-1.32-6.26-4.86-6.22-3.75.04-6.92,3.01-8.11,6.92-1.98,5.81-.08,12.35,5.07,12.56,1.81.08,3.87-.74,5.15-1.94Z"/>
  <path d="M59.09,11.57l4.16-1.36h.58c-.29.87-.49,1.69-.74,2.55,1.85-1.48,4.24-2.51,6.42-2.55,5.93-.12,9.64,4.74,8.11,11.12-1.69,6.92-7.49,10.79-12.64,10.79-2.84-.04-4.82-.95-6.09-2.39-.95,4.37-1.81,8.69-2.51,12.68h-4.41c2.76-9.43,5.52-21.41,7.12-30.84ZM72.84,24.5c1.98-5.85.12-12.4-5.07-12.6-1.65-.04-3.58.66-4.9,1.69-1.03,3.71-2.06,7.66-2.92,11.61-.7,3.75,1.44,6.26,4.82,6.22,3.75-.08,6.88-3.01,8.07-6.92Z"/>
  <path d="M81.74,21.17c1.52-6.63,7.54-11.08,13.71-10.87,4.53.12,7.74,3.42,6.84,7.62-.37,1.94-1.65,3.46-4.32,3.46l-14.03.37.04-.61,11.23-.49c1.98-.08,3.09-1.19,3.46-2.72.91-3.91-2.06-6.47-5.27-6.47-3.79,0-7.54,2.31-8.61,6.92-1.48,6.34,2.39,11.45,9.22,11.45,3.42,0,6.25-1.61,8.39-3.22l.42.42c-3.17,2.92-7.08,5.15-12.44,5.11-5.77-.04-10.17-4.24-8.65-10.95Z"/>
  <path d="M110.07,11.57l4.2-1.36h.54l-.87,2.97c2.26-1.56,4.9-3.01,7.41-3.01,1.32,0,2.68.49,3.5,1.19l-2.92,3.75c-1.15-1.77-2.02-3.17-3.71-3.25-1.44-.12-3.17,1.07-4.53,2.1-1.69,5.89-2.96,11.98-3.87,17.75h-4.41c2.06-6.34,3.79-13.8,4.65-20.14Z"/>
  <path d="M131.28,29.9c-.08.62-.16,1.19-.29,1.81h-7.37c3.09-9.76,5.52-20.3,6.96-30.06L137.41,0h.91c-1.36,4.49-2.59,8.94-3.71,13.42,2.06-2.35,4.65-3.83,7.21-3.95,6.38-.29,9.35,5.56,7.78,11.74-2.1,8.44-8.73,11.04-12.89,10.87-2.26-.08-4.24-.78-5.44-2.18ZM141.32,26.81c2.76-5.27,2.59-13.75-2.35-14.33-1.44-.16-3.71.54-4.57,1.81-.95,3.87-1.77,7.78-2.47,11.7-.37,3.5,1.89,5.27,3.87,5.27,2.26,0,4.24-2.1,5.52-4.45Z"/>
  <path d="M152.89,20.8c1.61-6.92,8.15-11.28,14.33-11.28s10.79,4.37,9.18,11.28c-1.61,6.92-8.19,11.32-14.37,11.32s-10.75-4.41-9.14-11.32ZM169.74,26.89c1.24-5.39-1.61-15.65-7.41-15.32-1.44.08-2.35,1.32-2.76,3.17-1.19,5.27,1.61,15.32,7.21,15.32,1.56,0,2.51-1.28,2.97-3.17Z"/>
  <path d="M185.8,22.94c-1.32-4.45-2.97-8.94-4.78-13.47h8.44c.49,2.72,1.15,5.39,1.94,8.07,3.17-3.17,5.93-6.09,7.54-8.07h2.59c-2.59,2.1-6.26,5.35-9.92,8.81,1.32,4.49,3.01,8.94,4.82,13.42h-8.52c-.49-2.68-1.11-5.35-1.89-8.03-3.17,3.17-5.97,6.14-7.49,8.03h-2.59c2.68-2.18,6.3-5.39,9.88-8.77Z"/>
</svg>